<svg width="106" height="26" viewBox="0 0 106 26" fill="none" xmlns="http://www.w3.org/2000/svg">
<path fill-rule="evenodd" clip-rule="evenodd" d="M12.6315 5.78987C12.6708 5.93663 12.8192 6.03081 12.966 5.99149L16.2369 5.11504C16.8372 4.95419 17.4543 5.31044 17.6151 5.91076L18.4916 9.1817C18.5309 9.32846 18.6867 9.40991 18.8335 9.37059C20.7845 8.84781 22.7899 10.0056 23.3127 11.9567C23.8354 13.9077 22.6776 15.9131 20.7266 16.4359C20.5798 16.4752 20.4857 16.6236 20.525 16.7704L21.4014 20.0413C21.5623 20.6417 21.206 21.2587 20.6057 21.4196L16.7982 22.4398C16.3879 22.5497 15.9863 22.2234 15.8764 21.813C15.4742 20.3122 13.9316 19.4216 12.4308 19.8237C10.93 20.2259 10.0394 21.7685 10.4415 23.2693C10.5515 23.6796 10.3669 24.163 9.9565 24.273L6.47513 25.2058C5.87482 25.3667 5.25777 25.0104 5.09691 24.4101L4.12039 20.7657C4.01044 20.3553 4.33677 19.9538 4.74713 19.8438C6.24792 19.4417 7.13855 17.899 6.73642 16.3983C6.33428 14.8975 4.79166 14.0068 3.29087 14.409C2.88051 14.5189 2.39711 14.3343 2.28715 13.924L1.31063 10.2795C1.14978 9.67922 1.50603 9.06217 2.10635 8.90132L5.37729 8.02487C5.52405 7.98555 5.60551 7.82977 5.56618 7.68301C5.04341 5.73198 6.20123 3.72657 8.15226 3.20379C10.1033 2.68102 12.1087 3.83884 12.6315 5.78987Z" fill="#6644FF"/>
<path fill-rule="evenodd" clip-rule="evenodd" d="M42.8672 6.6636C42.8279 6.81037 42.9094 6.96615 43.0561 7.00547L46.3271 7.88192C46.9274 8.04277 47.2836 8.65982 47.1228 9.26014L46.2463 12.5311C46.207 12.6778 46.3012 12.8263 46.448 12.8656C48.399 13.3884 49.5568 15.3938 49.034 17.3448C48.5113 19.2958 46.5058 20.4537 44.5548 19.9309C44.4081 19.8916 44.2523 19.973 44.213 20.1198L43.3365 23.3907C43.1757 23.991 42.5586 24.3473 41.9583 24.1864L38.1508 23.1662C37.7405 23.0563 37.5559 22.5729 37.6658 22.1625C38.0679 20.6617 37.1773 19.1191 35.6765 18.717C34.1757 18.3148 32.6331 19.2055 32.231 20.7062C32.121 21.1166 31.7194 21.4429 31.3091 21.333L27.8277 20.4002C27.2274 20.2393 26.8711 19.6222 27.032 19.0219L28.0085 15.3775C28.1185 14.9672 28.6019 14.7825 29.0122 14.8925C30.513 15.2946 32.0556 14.404 32.4578 12.9032C32.8599 11.4024 31.9693 9.8598 30.4685 9.45766C30.0581 9.34771 29.7318 8.94613 29.8418 8.53577L30.8183 4.89135C30.9791 4.29104 31.5962 3.93478 32.1965 4.09564L35.4674 4.97208C35.6142 5.01141 35.7626 4.91723 35.8019 4.77047C36.3247 2.81944 38.3301 1.66161 40.2812 2.18439C42.2322 2.70717 43.39 4.71258 42.8672 6.6636Z" fill="#FFB40F"/>
<path fill-rule="evenodd" clip-rule="evenodd" d="M66.1139 5.78987C66.1532 5.93663 66.3016 6.03081 66.4484 5.99149L69.7194 5.11504C70.3197 4.95419 70.9367 5.31044 71.0976 5.91076L71.974 9.1817C72.0133 9.32846 72.1691 9.40991 72.3159 9.37059C74.2669 8.84781 76.2723 10.0056 76.7951 11.9567C77.3179 13.9077 76.16 15.9131 74.209 16.4359C74.0623 16.4752 73.9681 16.6236 74.0074 16.7704L74.8838 20.0413C75.0447 20.6417 74.6884 21.2587 74.0881 21.4196L70.2807 22.4398C69.8703 22.5497 69.4687 22.2234 69.3588 21.813C68.9566 20.3122 67.414 19.4216 65.9132 19.8237C64.4124 20.2259 63.5218 21.7685 63.9239 23.2693C64.0339 23.6796 63.8493 24.163 63.4389 24.273L59.9576 25.2058C59.3572 25.3667 58.7402 25.0104 58.5793 24.4101L57.6028 20.7657C57.4929 20.3553 57.8192 19.9538 58.2296 19.8438C59.7303 19.4417 60.621 17.899 60.2188 16.3983C59.8167 14.8975 58.2741 14.0068 56.7733 14.409C56.3629 14.5189 55.8795 14.3343 55.7696 13.924L54.7931 10.2795C54.6322 9.67922 54.9885 9.06217 55.5888 8.90132L58.8597 8.02487C59.0065 7.98555 59.0879 7.82977 59.0486 7.68301C58.5258 5.73198 59.6837 3.72657 61.6347 3.20379C63.5857 2.68102 65.5911 3.83884 66.1139 5.78987Z" fill="#25CEC1"/>
<path fill-rule="evenodd" clip-rule="evenodd" d="M96.3497 6.6636C96.3103 6.81037 96.3918 6.96615 96.5386 7.00547L99.8095 7.88192C100.41 8.04277 100.766 8.65982 100.605 9.26014L99.7288 12.5311C99.6894 12.6778 99.7836 12.8263 99.9304 12.8656C101.881 13.3884 103.039 15.3938 102.516 17.3448C101.994 19.2958 99.9883 20.4537 98.0372 19.9309C97.8905 19.8916 97.7347 19.973 97.6954 20.1198L96.8189 23.3907C96.6581 23.991 96.041 24.3473 95.4407 24.1864L91.6332 23.1662C91.2229 23.0563 91.0383 22.5729 91.1482 22.1625C91.5504 20.6617 90.6597 19.1191 89.1589 18.717C87.6582 18.3148 86.1155 19.2055 85.7134 20.7062C85.6034 21.1166 85.2019 21.4429 84.7915 21.333L81.3101 20.4002C80.7098 20.2393 80.3536 19.6222 80.5144 19.0219L81.4909 15.3775C81.6009 14.9672 82.0843 14.7825 82.4947 14.8925C83.9954 15.2946 85.5381 14.404 85.9402 12.9032C86.3423 11.4024 85.4517 9.8598 83.9509 9.45766C83.5406 9.34771 83.2142 8.94613 83.3242 8.53577L84.3007 4.89135C84.4615 4.29104 85.0786 3.93478 85.6789 4.09564L88.9499 4.97208C89.0966 5.01141 89.245 4.91723 89.2844 4.77047C89.8071 2.81944 91.8126 1.66161 93.7636 2.18439C95.7146 2.70717 96.8724 4.71258 96.3497 6.6636Z" fill="#FD2D69"/>
</svg>
