<svg width="28" height="28" viewBox="0 0 28 28" fill="none" xmlns="http://www.w3.org/2000/svg">
<path d="M14 12.769C12.35 12.769 10.9375 12.1815 9.7625 11.0065C8.5875 9.83154 8 8.41904 8 6.76904C8 5.11904 8.5875 3.70654 9.7625 2.53154C10.9375 1.35654 12.35 0.769043 14 0.769043C15.65 0.769043 17.0625 1.35654 18.2375 2.53154C19.4125 3.70654 20 5.11904 20 6.76904C20 8.41904 19.4125 9.83154 18.2375 11.0065C17.0625 12.1815 15.65 12.769 14 12.769ZM0 27.231V23.9385C0 23.1129 0.240333 22.3404 0.721 21.621C1.202 20.902 1.84883 20.3437 2.6615 19.946C4.54883 19.041 6.43733 18.3622 8.327 17.9095C10.2167 17.4572 12.1077 17.231 14 17.231C15.8923 17.231 17.7833 17.4572 19.673 17.9095C21.5627 18.3622 23.4512 19.041 25.3385 19.946C26.1512 20.3437 26.798 20.902 27.279 21.621C27.7597 22.3404 28 23.1129 28 23.9385V27.231H0Z" fill="#E2E2E2"/>
</svg>
