<svg width="18" height="18" viewBox="0 0 18 18" fill="none" xmlns="http://www.w3.org/2000/svg">
<g clip-path="url(#clip0_788_601)">
<path d="M11.0192 13.5005C10.5374 13.5005 10.1286 13.3325 9.79256 12.9965C9.45656 12.6604 9.28856 12.2514 9.28856 11.7697C9.28856 11.2879 9.45656 10.8791 9.79256 10.5431C10.1286 10.2071 10.5374 10.0391 11.0192 10.0391C11.5009 10.0391 11.9099 10.2071 12.246 10.5431C12.582 10.8791 12.75 11.2879 12.75 11.7697C12.75 12.2514 12.582 12.6604 12.246 12.9965C11.9099 13.3325 11.5009 13.5005 11.0192 13.5005ZM3.98081 16.1255C3.60194 16.1255 3.28125 15.9943 3.01875 15.7318C2.75625 15.4693 2.625 15.1486 2.625 14.7697V4.73131C2.625 4.35244 2.75625 4.03175 3.01875 3.76925C3.28125 3.50675 3.60194 3.3755 3.98081 3.3755H5.01919V1.78906H6.17306V3.3755H11.8558V1.78906H12.9808V3.3755H14.0192C14.3981 3.3755 14.7188 3.50675 14.9813 3.76925C15.2438 4.03175 15.375 4.35244 15.375 4.73131V14.7697C15.375 15.1486 15.2438 15.4693 14.9813 15.7318C14.7188 15.9943 14.3981 16.1255 14.0192 16.1255H3.98081ZM3.98081 15.0005H14.0192C14.0769 15.0005 14.1298 14.9764 14.1778 14.9283C14.2259 14.8803 14.25 14.8274 14.25 14.7697V7.73131H3.75V14.7697C3.75 14.8274 3.77406 14.8803 3.82219 14.9283C3.87019 14.9764 3.92306 15.0005 3.98081 15.0005ZM3.75 6.60631H14.25V4.73131C14.25 4.67356 14.2259 4.62069 14.1778 4.57269C14.1298 4.52456 14.0769 4.5005 14.0192 4.5005H3.98081C3.92306 4.5005 3.87019 4.52456 3.82219 4.57269C3.77406 4.62069 3.75 4.67356 3.75 4.73131V6.60631Z" fill="white"/>
</g>
<defs>
<clipPath id="clip0_788_601">
<rect width="18" height="18" fill="white"/>
</clipPath>
</defs>
</svg>
