<svg width="140" height="115" viewBox="0 0 140 115" fill="none" xmlns="http://www.w3.org/2000/svg">
<path fill-rule="evenodd" clip-rule="evenodd" d="M57.3876 89.9839C44.0035 89.9839 33.0965 100.59 32.6128 113.856C32.5943 114.363 32.185 114.775 31.6779 114.775L9.18188 114.775C4.11077 114.775 -0.000152947 110.664 -0.000153391 105.593L-0.000161819 9.18187C-0.000162263 4.11077 4.11076 -0.000171264 9.18187 -0.000171707L105.593 -0.000180135C110.664 -0.000180579 114.775 4.11076 114.775 9.18186L114.775 33.5111C114.775 34.0468 115.232 34.4671 115.767 34.4477C116.048 34.4376 116.329 34.4325 116.612 34.4325C129.29 34.4325 139.567 44.7098 139.567 57.3876C139.567 70.0654 129.29 80.3427 116.612 80.3427C116.329 80.3427 116.048 80.3376 115.767 80.3275C115.232 80.3081 114.775 80.7284 114.775 81.2641L114.775 105.593C114.775 110.664 110.664 114.775 105.593 114.775L83.0973 114.775C82.5902 114.775 82.1809 114.363 82.1624 113.856C81.6787 100.59 70.7717 89.9839 57.3876 89.9839Z" fill="#7D7D7D"/>
<path d="M51.0582 66.6662C50.3497 66.6662 49.7461 66.4171 49.2477 65.9189C48.7494 65.4204 48.5003 64.8169 48.5003 64.1083V44.4996H46.917V42.9162H53.2503V41.6982H62.7503V42.9162H69.0837V44.4996H67.5003V64.1083C67.5003 64.8372 67.2562 65.4457 66.768 65.9339C66.2798 66.4221 65.6713 66.6662 64.9425 66.6662H51.0582ZM65.917 44.4996H50.0837V64.1083C50.0837 64.3926 50.175 64.6261 50.3576 64.809C50.5405 64.9916 50.774 65.0829 51.0582 65.0829H64.9425C65.1863 65.0829 65.4097 64.9814 65.6126 64.7785C65.8155 64.5756 65.917 64.3522 65.917 64.1083V44.4996ZM54.5293 61.9162H56.1126V47.6662H54.5293V61.9162ZM59.8881 61.9162H61.4714V47.6662H59.8881V61.9162Z" fill="white"/>
</svg>
