<svg width="115" height="140" viewBox="0 0 115 140" fill="none" xmlns="http://www.w3.org/2000/svg">
<path fill-rule="evenodd" clip-rule="evenodd" d="M57.3876 114.776C44.0034 114.776 33.0965 125.382 32.6128 138.648C32.5943 139.155 32.185 139.567 31.6778 139.567L9.18187 139.567C4.11076 139.567 -0.000177262 135.456 -0.000176819 130.385L-0.000216885 107.889C-0.000217751 107.382 0.412545 106.973 0.919319 106.954C14.1853 106.471 24.7913 95.5637 24.7913 82.1796C24.7913 68.7955 14.1853 57.8885 0.919323 57.4048C0.412549 57.3863 -0.000213344 56.977 -0.000212389 56.4699L-0.000168391 33.9738C-0.000167947 28.9027 4.11077 24.7918 9.18188 24.7918L33.5111 24.7918C34.0468 24.7918 34.4671 24.3351 34.4477 23.7998C34.4376 23.5196 34.4325 23.2381 34.4325 22.9554C34.4325 10.2776 44.7098 0.000267579 57.3876 0.000268688C70.0653 0.000269796 80.3427 10.2776 80.3427 22.9554C80.3427 23.2381 80.3376 23.5196 80.3274 23.7998C80.3081 24.3351 80.7284 24.7918 81.2641 24.7918L105.593 24.7918C110.664 24.7918 114.775 28.9027 114.775 33.9738L114.775 130.385C114.775 135.456 110.664 139.567 105.593 139.567L83.0973 139.567C82.5902 139.567 82.1808 139.155 82.1624 138.648C81.6787 125.382 70.7717 114.776 57.3876 114.776Z" fill="#7D7D7D"/>
<path d="M51.8331 87.8459C51.1246 87.8459 50.521 87.5968 50.0226 87.0986C49.5243 86.6001 49.2752 85.9966 49.2752 85.288V65.6792H47.6919V64.0959H54.0252V62.8779H63.5252V64.0959H69.8586V65.6792H68.2752V85.288C68.2752 86.0169 68.0311 86.6254 67.5429 87.1136C67.0547 87.6018 66.4462 87.8459 65.7174 87.8459H51.8331ZM66.6919 65.6792H50.8586V85.288C50.8586 85.5722 50.9499 85.8058 51.1325 85.9887C51.3154 86.1713 51.5489 86.2626 51.8331 86.2626H65.7174C65.9612 86.2626 66.1846 86.1611 66.3875 85.9582C66.5904 85.7552 66.6919 85.5319 66.6919 85.288V65.6792ZM55.3042 83.0959H56.8875V68.8459H55.3042V83.0959ZM60.663 83.0959H62.2463V68.8459H60.663V83.0959Z" fill="white"/>
</svg>
