<svg width="20" height="20" viewBox="0 0 20 20" fill="none" xmlns="http://www.w3.org/2000/svg">
<path d="M9.99999 13.9377C11.3697 12.7838 12.4066 11.6689 13.1106 10.5931C13.8146 9.51725 14.1667 8.50926 14.1667 7.56912C14.1667 6.32982 13.7778 5.31405 13 4.52183C12.2222 3.72961 11.2222 3.3335 9.99999 3.3335C8.77777 3.3335 7.77777 3.72961 6.99999 4.52183C6.22222 5.31405 5.83333 6.32982 5.83333 7.56912C5.83333 8.50926 6.18534 9.51725 6.88937 10.5931C7.5934 11.6689 8.63027 12.7838 9.99999 13.9377ZM9.99999 15.521C8.19652 14.1246 6.84291 12.7606 5.93916 11.4289C5.03527 10.0971 4.58333 8.81051 4.58333 7.56912C4.58333 5.96648 5.08763 4.65155 6.09624 3.62433C7.10472 2.59711 8.40597 2.0835 9.99999 2.0835C11.594 2.0835 12.8953 2.59711 13.9037 3.62433C14.9124 4.65155 15.4167 5.96648 15.4167 7.56912C15.4167 8.81051 14.9647 10.0957 14.0608 11.4247C13.1571 12.7539 11.8035 14.1193 9.99999 15.521ZM9.99999 9.00662C10.4156 9.00662 10.7705 8.8594 11.0648 8.56495C11.3592 8.27065 11.5065 7.91572 11.5065 7.50016C11.5065 7.08461 11.3592 6.72968 11.0648 6.43537C10.7705 6.14093 10.4156 5.9937 9.99999 5.9937C9.58444 5.9937 9.22951 6.14093 8.9352 6.43537C8.64076 6.72968 8.49354 7.08461 8.49354 7.50016C8.49354 7.91572 8.64076 8.27065 8.9352 8.56495C9.22951 8.8594 9.58444 9.00662 9.99999 9.00662ZM4.58333 17.9168V16.6668H15.4167V17.9168H4.58333Z" fill="#FD2D69"/>
</svg>
