<svg width="115" height="115" viewBox="0 0 115 115" fill="none" xmlns="http://www.w3.org/2000/svg">
<path fill-rule="evenodd" clip-rule="evenodd" d="M57.3876 89.9839C44.0034 89.9839 33.0965 100.59 32.6128 113.856C32.5943 114.363 32.1849 114.775 31.6778 114.775L9.18187 114.775C4.11077 114.775 -0.000169812 110.664 -0.000169369 105.593L-0.000216439 83.0973C-0.000217457 82.5902 0.412538 82.1808 0.919312 82.1624C14.1853 81.6787 24.7913 70.7717 24.7913 57.3876C24.7913 44.0035 14.1853 33.0965 0.919323 32.6128C0.412549 32.5943 -0.00021305 32.185 -0.000211944 31.6779L-0.000167945 9.18185C-0.000167502 4.11074 4.11079 -0.000194747 9.18188 -0.000194304L105.593 -0.000185875C110.664 -0.000185432 114.775 4.11076 114.775 9.18186L114.775 105.593C114.775 110.664 110.664 114.775 105.593 114.775L83.0973 114.775C82.5902 114.775 82.1808 114.363 82.1624 113.856C81.6786 100.59 70.7717 89.9839 57.3876 89.9839Z" fill="#7D7D7D"/>
<path d="M51.8331 66.6662C51.1246 66.6662 50.521 66.4171 50.0226 65.9189C49.5243 65.4204 49.2752 64.8169 49.2752 64.1083V44.4996H47.6919V42.9162H54.0252V41.6982H63.5252V42.9162H69.8586V44.4996H68.2752V64.1083C68.2752 64.8372 68.0311 65.4457 67.5429 65.9339C67.0547 66.4221 66.4462 66.6662 65.7174 66.6662H51.8331ZM66.6919 44.4996H50.8586V64.1083C50.8586 64.3926 50.9499 64.6261 51.1325 64.809C51.3154 64.9916 51.5489 65.0829 51.8331 65.0829H65.7174C65.9612 65.0829 66.1846 64.9814 66.3875 64.7785C66.5904 64.5756 66.6919 64.3522 66.6919 64.1083V44.4996ZM55.3042 61.9162H56.8875V47.6662H55.3042V61.9162ZM60.663 61.9162H62.2463V47.6662H60.663V61.9162Z" fill="white"/>
</svg>
