<svg width="68" height="68" viewBox="0 0 68 68" fill="none" xmlns="http://www.w3.org/2000/svg">
<path fill-rule="evenodd" clip-rule="evenodd" d="M39.3252 11.889C39.3252 12.3829 39.712 12.8036 40.206 12.8036H51.2142C53.2346 12.8036 54.8724 14.4414 54.8724 16.4617V27.47C54.8724 27.9639 55.293 28.3507 55.7869 28.3507C62.353 28.3507 67.6759 33.6736 67.6759 40.2397C67.6759 46.8059 62.353 52.1288 55.7869 52.1288C55.293 52.1288 54.8724 52.5156 54.8724 53.0095V64.0178C54.8724 66.0381 53.2346 67.6759 51.2142 67.6759H38.4003C37.0193 67.6759 36.0329 66.3134 36.0329 64.9323C36.0329 59.8815 31.9383 55.7869 26.8875 55.7869C21.8366 55.7869 17.7421 59.8815 17.7421 64.9323C17.7421 66.3134 16.7557 67.6759 15.3746 67.6759H3.65816C1.63781 67.6759 0 66.0381 0 64.0178L0 51.7526C0 50.3716 1.36258 49.3851 2.74362 49.3851C7.79448 49.3851 11.889 45.2906 11.889 40.2397C11.889 35.1889 7.79448 31.0943 2.74362 31.0943C1.36258 31.0943 0 30.1079 0 28.7269L0 16.4617C0 14.4414 1.63781 12.8036 3.65816 12.8036H14.6664C15.1603 12.8036 15.5472 12.3829 15.5472 11.889C15.5472 5.32289 20.8701 0 27.4362 0C34.0023 0 39.3252 5.32289 39.3252 11.889Z" fill="#6644FF"/>
<path d="M21 35.5635L27.6 43.0898L39 30.0898" stroke="white" stroke-width="3" stroke-linecap="round" stroke-linejoin="round"/>
</svg>
