<svg width="82" height="69" viewBox="0 0 82 69" fill="none" xmlns="http://www.w3.org/2000/svg">
<circle cx="30" cy="30" r="30" fill="#A7A7A7"/>
<g filter="url(#filter0_d_1455_286)">
<circle cx="58.5" cy="45.5" r="16.5" fill="white"/>
</g>
<path d="M51.7565 53.0833C51.3355 53.0833 50.9792 52.9375 50.6875 52.6458C50.3958 52.3542 50.25 51.9978 50.25 51.5769V42.0898C50.25 41.6688 50.3958 41.3125 50.6875 41.0208C50.9792 40.7292 51.3355 40.5833 51.7565 40.5833H54.3013L55.391 39.4023C55.5288 39.2528 55.6949 39.1346 55.8892 39.0475C56.0833 38.9603 56.2869 38.9167 56.5 38.9167H59.8815C60.0585 38.9167 60.2069 38.9766 60.3267 39.0965C60.4465 39.2163 60.5065 39.3648 60.5065 39.5419C60.5065 39.7191 60.4465 39.8675 60.3267 39.9871C60.2069 40.1068 60.0585 40.1667 59.8815 40.1667H56.3879L54.859 41.8333H51.7565C51.6816 41.8333 51.6201 41.8574 51.5721 41.9054C51.524 41.9535 51.5 42.0149 51.5 42.0898V51.5769C51.5 51.6517 51.524 51.7132 51.5721 51.7612C51.6201 51.8093 51.6816 51.8333 51.7565 51.8333H64.5769C64.6517 51.8333 64.7132 51.8093 64.7612 51.7612C64.8093 51.7132 64.8333 51.6517 64.8333 51.5769V45.1185C64.8333 44.9415 64.8933 44.7931 65.0131 44.6733C65.133 44.5535 65.2815 44.4935 65.4585 44.4935C65.6358 44.4935 65.7842 44.5535 65.9038 44.6733C66.0235 44.7931 66.0833 44.9415 66.0833 45.1185V51.5769C66.0833 51.9978 65.9375 52.3542 65.6458 52.6458C65.3542 52.9375 64.9978 53.0833 64.5769 53.0833H51.7565ZM64.8333 40.1667H63.7917C63.6146 40.1667 63.4661 40.1067 63.3463 39.9869C63.2265 39.867 63.1667 39.7185 63.1667 39.5415C63.1667 39.3642 63.2265 39.2158 63.3463 39.0962C63.4661 38.9765 63.6146 38.9167 63.7917 38.9167H64.8333V37.875C64.8333 37.6979 64.8933 37.5495 65.0131 37.4298C65.133 37.3099 65.2815 37.25 65.4585 37.25C65.6358 37.25 65.7842 37.3099 65.9038 37.4298C66.0235 37.5495 66.0833 37.6979 66.0833 37.875V38.9167H67.125C67.3021 38.9167 67.4505 38.9766 67.5702 39.0965C67.6901 39.2163 67.75 39.3648 67.75 39.5419C67.75 39.7191 67.6901 39.8675 67.5702 39.9871C67.4505 40.1068 67.3021 40.1667 67.125 40.1667H66.0833V41.2083C66.0833 41.3854 66.0234 41.5339 65.9035 41.6538C65.7837 41.7735 65.6352 41.8333 65.4581 41.8333C65.2809 41.8333 65.1325 41.7735 65.0129 41.6538C64.8932 41.5339 64.8333 41.3854 64.8333 41.2083V40.1667ZM58.1667 50.2627C59.1229 50.2627 59.9335 49.9302 60.5985 49.2652C61.2635 48.6002 61.596 47.7896 61.596 46.8333C61.596 45.8771 61.2635 45.0665 60.5985 44.4015C59.9335 43.7365 59.1229 43.404 58.1667 43.404C57.2104 43.404 56.3998 43.7365 55.7348 44.4015C55.0698 45.0665 54.7373 45.8771 54.7373 46.8333C54.7373 47.7896 55.0698 48.6002 55.7348 49.2652C56.3998 49.9302 57.2104 50.2627 58.1667 50.2627ZM58.1667 49.0129C57.5512 49.0129 57.0342 48.8035 56.6154 48.3846C56.1965 47.9658 55.9871 47.4488 55.9871 46.8333C55.9871 46.2179 56.1965 45.7008 56.6154 45.2821C57.0342 44.8632 57.5512 44.6538 58.1667 44.6538C58.7821 44.6538 59.2992 44.8632 59.7179 45.2821C60.1368 45.7008 60.3463 46.2179 60.3463 46.8333C60.3463 47.4488 60.1368 47.9658 59.7179 48.3846C59.2992 48.8035 58.7821 49.0129 58.1667 49.0129Z" fill="#7D8186"/>
<path fill-rule="evenodd" clip-rule="evenodd" d="M33.3649 22.0405C33.3649 22.2084 33.4963 22.3514 33.6642 22.3514H37.4054C38.092 22.3514 38.6486 22.908 38.6486 23.5946V27.3358C38.6486 27.5037 38.7916 27.6351 38.9595 27.6351C41.191 27.6351 43 29.4441 43 31.6757C43 33.9072 41.191 35.7162 38.9595 35.7162C38.7916 35.7162 38.6486 35.8477 38.6486 36.0155V39.7568C38.6486 40.4434 38.092 41 37.4054 41H33.0505C32.5812 41 32.2459 40.5369 32.2459 40.0676C32.2459 38.351 30.8544 36.9595 29.1378 36.9595C27.4213 36.9595 26.0297 38.351 26.0297 40.0676C26.0297 40.5369 25.6945 41 25.2251 41H21.2432C20.5566 41 20 40.4434 20 39.7568V35.5884C20 35.119 20.4631 34.7838 20.9324 34.7838C22.649 34.7838 24.0405 33.3922 24.0405 31.6757C24.0405 29.9591 22.649 28.5676 20.9324 28.5676C20.4631 28.5676 20 28.2323 20 27.763V23.5946C20 22.908 20.5566 22.3514 21.2432 22.3514H24.9845C25.1523 22.3514 25.2838 22.2084 25.2838 22.0405C25.2838 19.809 27.0928 18 29.3243 18C31.5559 18 33.3649 19.809 33.3649 22.0405Z" fill="white"/>
<defs>
<filter id="filter0_d_1455_286" x="39" y="26" width="43" height="43" filterUnits="userSpaceOnUse" color-interpolation-filters="sRGB">
<feFlood flood-opacity="0" result="BackgroundImageFix"/>
<feColorMatrix in="SourceAlpha" type="matrix" values="0 0 0 0 0 0 0 0 0 0 0 0 0 0 0 0 0 0 127 0" result="hardAlpha"/>
<feOffset dx="2" dy="2"/>
<feGaussianBlur stdDeviation="2.5"/>
<feComposite in2="hardAlpha" operator="out"/>
<feColorMatrix type="matrix" values="0 0 0 0 0 0 0 0 0 0 0 0 0 0 0 0 0 0 0.1 0"/>
<feBlend mode="normal" in2="BackgroundImageFix" result="effect1_dropShadow_1455_286"/>
<feBlend mode="normal" in="SourceGraphic" in2="effect1_dropShadow_1455_286" result="shape"/>
</filter>
</defs>
</svg>
