<svg width="30" height="30" viewBox="0 0 30 30" fill="none" xmlns="http://www.w3.org/2000/svg">
<path d="M7.32677 22.6732L17.314 17.314L22.6732 7.32677L12.686 12.686L7.32677 22.6732ZM15 16.5833C14.5514 16.5833 14.1753 16.4316 13.8719 16.1281C13.5684 15.8247 13.4167 15.4486 13.4167 15C13.4167 14.5514 13.5684 14.1753 13.8719 13.8719C14.1753 13.5684 14.5514 13.4167 15 13.4167C15.4486 13.4167 15.8247 13.5684 16.1281 13.8719C16.4316 14.1753 16.5833 14.5514 16.5833 15C16.5833 15.4486 16.4316 15.8247 16.1281 16.1281C15.8247 16.4316 15.4486 16.5833 15 16.5833ZM15.0051 29.25C13.0347 29.25 11.1821 28.8761 9.44725 28.1282C7.71271 27.3803 6.20379 26.3654 4.9205 25.0835C3.63721 23.8015 2.62137 22.2939 1.87298 20.5607C1.12433 18.8277 0.75 16.9759 0.75 15.0051C0.75 13.0347 1.12393 11.1821 1.87179 9.44725C2.61965 7.71271 3.63457 6.20379 4.91654 4.9205C6.19851 3.63721 7.70611 2.62137 9.43933 1.87298C11.1723 1.12433 13.0241 0.75 14.9949 0.75C16.9653 0.75 18.8179 1.12393 20.5528 1.87179C22.2873 2.61965 23.7962 3.63457 25.0795 4.91654C26.3628 6.19851 27.3786 7.70611 28.127 9.43933C28.8757 11.1723 29.25 13.0241 29.25 14.9949C29.25 16.9653 28.8761 18.8179 28.1282 20.5527C27.3803 22.2873 26.3654 23.7962 25.0835 25.0795C23.8015 26.3628 22.2939 27.3786 20.5607 28.127C18.8277 28.8757 16.9759 29.25 15.0051 29.25Z" fill="#E2E2E2"/>
</svg>
