<svg width="22" height="22" viewBox="0 0 22 22" fill="none" xmlns="http://www.w3.org/2000/svg">
<path fill-rule="evenodd" clip-rule="evenodd" d="M12.9282 3.99711C12.9282 4.14905 13.0472 4.27843 13.1991 4.27843H16.5854C17.2069 4.27843 17.7107 4.78225 17.7107 5.40375V8.79007C17.7107 8.94201 17.8401 9.06101 17.9921 9.06101C20.0119 9.06101 21.6493 10.6984 21.6493 12.7183C21.6493 14.7381 20.0119 16.3755 17.9921 16.3755C17.8401 16.3755 17.7107 16.4945 17.7107 16.6465V20.0328C17.7107 20.6543 17.2069 21.1581 16.5854 21.1581H12.6436C12.2188 21.1581 11.9154 20.739 11.9154 20.3141C11.9154 18.7604 10.6558 17.5008 9.1021 17.5008C7.54836 17.5008 6.28882 18.7604 6.28882 20.3141C6.28882 20.739 5.98538 21.1581 5.56055 21.1581H1.95637C1.33487 21.1581 0.831055 20.6543 0.831055 20.0328L0.831055 16.2598C0.831055 15.835 1.25021 15.5316 1.67504 15.5316C3.22877 15.5316 4.48832 14.272 4.48832 12.7183C4.48832 11.1645 3.22877 9.90499 1.67504 9.90499C1.25021 9.90499 0.831055 9.60156 0.831055 9.17673L0.831055 5.40375C0.831055 4.78225 1.33487 4.27843 1.95637 4.27843H5.34269C5.49463 4.27843 5.61363 4.14905 5.61363 3.99711C5.61363 1.97726 7.25104 0.339844 9.27089 0.339844C11.2907 0.339844 12.9282 1.97726 12.9282 3.99711Z" fill="#FD2D69"/>
</svg>
