<svg width="20" height="20" viewBox="0 0 20 20" fill="none" xmlns="http://www.w3.org/2000/svg">
<path fill-rule="evenodd" clip-rule="evenodd" d="M11.6216 3.51351C11.6216 3.65948 11.7359 3.78378 11.8819 3.78378H15.1351C15.7322 3.78378 16.2162 4.2678 16.2162 4.86486V8.11809C16.2162 8.26406 16.3405 8.37838 16.4865 8.37838C18.4269 8.37838 20 9.95143 20 11.8919C20 13.8324 18.4269 15.4054 16.4865 15.4054C16.3405 15.4054 16.2162 15.5197 16.2162 15.6657V18.9189C16.2162 19.516 15.7322 20 15.1351 20H11.3483C10.9402 20 10.6486 19.5973 10.6486 19.1892C10.6486 17.6965 9.43861 16.4865 7.94595 16.4865C6.45328 16.4865 5.24324 17.6965 5.24324 19.1892C5.24324 19.5973 4.95173 20 4.5436 20H1.08108C0.484017 20 0 19.516 0 18.9189L0 15.2942C0 14.8861 0.402677 14.5946 0.810811 14.5946C2.30347 14.5946 3.51351 13.3846 3.51351 11.8919C3.51351 10.3992 2.30347 9.18919 0.810811 9.18919C0.402677 9.18919 0 8.89768 0 8.48955L0 4.86486C0 4.2678 0.484017 3.78378 1.08108 3.78378H4.33431C4.48027 3.78378 4.59459 3.65948 4.59459 3.51351C4.59459 1.57305 6.16765 0 8.10811 0C10.0486 0 11.6216 1.57305 11.6216 3.51351Z" fill="#6644FF"/>
</svg>
