<svg width="21" height="21" viewBox="0 0 21 21" fill="none" xmlns="http://www.w3.org/2000/svg">
<path fill-rule="evenodd" clip-rule="evenodd" d="M12.0971 3.65726C12.0971 3.8092 12.2161 3.93859 12.368 3.93859H15.7544C16.3759 3.93859 16.8797 4.44241 16.8797 5.0639V8.45023C16.8797 8.60217 17.0091 8.72117 17.161 8.72117C19.1809 8.72117 20.8183 10.3586 20.8183 12.3784C20.8183 14.3983 19.1809 16.0357 17.161 16.0357C17.0091 16.0357 16.8797 16.1547 16.8797 16.3066V19.693C16.8797 20.3144 16.3759 20.8183 15.7544 20.8183H11.8126C11.3878 20.8183 11.0843 20.3991 11.0843 19.9743C11.0843 18.4206 9.82477 17.161 8.27104 17.161C6.71731 17.161 5.45776 18.4206 5.45776 19.9743C5.45776 20.3991 5.15432 20.8183 4.72949 20.8183H1.12531C0.503819 20.8183 0 20.3144 0 19.693L0 15.92C0 15.4951 0.419152 15.1917 0.843984 15.1917C2.39772 15.1917 3.65726 13.9322 3.65726 12.3784C3.65726 10.8247 2.39772 9.56515 0.843984 9.56515C0.419152 9.56515 0 9.26171 0 8.83688L0 5.0639C0 4.44241 0.503819 3.93859 1.12531 3.93859H4.51164C4.66358 3.93859 4.78257 3.8092 4.78257 3.65726C4.78257 1.63741 6.41999 0 8.43984 0C10.4597 0 12.0971 1.63741 12.0971 3.65726Z" fill="#6644FF"/>
</svg>
