<svg width="140" height="115" viewBox="0 0 140 115" fill="none" xmlns="http://www.w3.org/2000/svg">
<path fill-rule="evenodd" clip-rule="evenodd" d="M57.3876 89.9839C44.0035 89.9839 33.0965 100.59 32.6128 113.856C32.5943 114.363 32.185 114.775 31.6778 114.775L9.18187 114.775C4.11076 114.775 -0.000172904 110.664 -0.000173347 105.593L-0.000217346 83.0973C-0.000218301 82.5902 0.412544 82.1809 0.919318 82.1624C14.1853 81.6787 24.7913 70.7717 24.7913 57.3876C24.7913 44.0035 14.1853 33.0965 0.919314 32.6128C0.41254 32.5943 -0.000222707 32.185 -0.000221841 31.6779L-0.000181776 9.18187C-0.000182219 4.11077 4.11075 -0.00017323 9.18186 -0.000173674L105.593 -0.000182102C110.664 -0.000182546 114.775 4.11076 114.775 9.18186L114.775 33.5111C114.775 34.0468 115.232 34.4671 115.767 34.4477C116.048 34.4376 116.329 34.4325 116.612 34.4325C129.29 34.4325 139.567 44.7098 139.567 57.3876C139.567 70.0654 129.29 80.3427 116.612 80.3427C116.329 80.3427 116.048 80.3376 115.767 80.3275C115.232 80.3081 114.775 80.7284 114.775 81.2641L114.775 105.593C114.775 110.664 110.664 114.775 105.593 114.775L83.0973 114.775C82.5902 114.775 82.1808 114.363 82.1624 113.856C81.6787 100.59 70.7717 89.9839 57.3876 89.9839Z" fill="#7D7D7D"/>
<path d="M52.4449 66.6662C51.7364 66.6662 51.1329 66.4171 50.6344 65.9189C50.1362 65.4204 49.887 64.8169 49.887 64.1083V44.4996H48.3037V42.9162H54.637V41.6982H64.137V42.9162H70.4704V44.4996H68.887V64.1083C68.887 64.8372 68.6429 65.4457 68.1548 65.9339C67.6666 66.4221 67.058 66.6662 66.3292 66.6662H52.4449ZM67.3037 44.4996H51.4704V64.1083C51.4704 64.3926 51.5617 64.6261 51.7443 64.809C51.9272 64.9916 52.1607 65.0829 52.4449 65.0829H66.3292C66.573 65.0829 66.7964 64.9814 66.9993 64.7785C67.2022 64.5756 67.3037 64.3522 67.3037 64.1083V44.4996ZM55.916 61.9162H57.4993V47.6662H55.916V61.9162ZM61.2748 61.9162H62.8581V47.6662H61.2748V61.9162Z" fill="white"/>
</svg>
