<svg width="390" height="26" viewBox="0 0 390 26" fill="none" xmlns="http://www.w3.org/2000/svg">
<path fill-rule="evenodd" clip-rule="evenodd" d="M154.631 5.78999V5.78999C154.671 5.93675 154.819 6.03093 154.966 5.99161L158.237 5.11516C158.837 4.95431 159.454 5.31056 159.615 5.91088L160.492 9.18182C160.531 9.32858 160.687 9.41004 160.833 9.37071V9.37071C162.784 8.84793 164.79 10.0058 165.313 11.9568C165.835 13.9078 164.678 15.9132 162.727 16.436V16.436C162.58 16.4753 162.486 16.6238 162.525 16.7705L163.401 20.0415C163.562 20.6418 163.206 21.2588 162.606 21.4197L158.798 22.4399C158.388 22.5498 157.986 22.2235 157.876 21.8131V21.8131C157.474 20.3124 155.932 19.4217 154.431 19.8239C152.93 20.226 152.039 21.7686 152.442 23.2694V23.2694C152.551 23.6798 152.367 24.1632 151.957 24.2731L148.475 25.206C147.875 25.3668 147.258 25.0106 147.097 24.4102L146.12 20.7658C146.01 20.3555 146.337 19.9539 146.747 19.8439V19.8439C148.248 19.4418 149.139 17.8992 148.736 16.3984C148.334 14.8976 146.792 14.007 145.291 14.4091V14.4091C144.881 14.519 144.397 14.3344 144.287 13.9241L143.311 10.2797C143.15 9.67934 143.506 9.06229 144.106 8.90144L147.377 8.02499C147.524 7.98567 147.606 7.82989 147.566 7.68313V7.68313C147.043 5.7321 148.201 3.72669 150.152 3.20391C152.103 2.68114 154.109 3.83896 154.631 5.78999Z" fill="white"/>
<path fill-rule="evenodd" clip-rule="evenodd" d="M184.867 6.6636V6.6636C184.828 6.81037 184.909 6.96615 185.056 7.00547L188.327 7.88192C188.927 8.04277 189.284 8.65982 189.123 9.26014L188.246 12.5311C188.207 12.6778 188.301 12.8263 188.448 12.8656V12.8656C190.399 13.3884 191.557 15.3938 191.034 17.3448C190.511 19.2958 188.506 20.4537 186.555 19.9309V19.9309C186.408 19.8916 186.252 19.973 186.213 20.1198L185.337 23.3907C185.176 23.991 184.559 24.3473 183.958 24.1864L180.151 23.1662C179.74 23.0563 179.556 22.5729 179.666 22.1625V22.1625C180.068 20.6617 179.177 19.1191 177.677 18.717C176.176 18.3148 174.633 19.2055 174.231 20.7062V20.7062C174.121 21.1166 173.719 21.4429 173.309 21.333L169.828 20.4002C169.227 20.2393 168.871 19.6222 169.032 19.0219L170.009 15.3775C170.118 14.9672 170.602 14.7825 171.012 14.8925V14.8925C172.513 15.2946 174.056 14.404 174.458 12.9032C174.86 11.4024 173.969 9.8598 172.468 9.45766V9.45766C172.058 9.34771 171.732 8.94613 171.842 8.53577L172.818 4.89135C172.979 4.29104 173.596 3.93478 174.196 4.09564L177.467 4.97208C177.614 5.01141 177.763 4.91723 177.802 4.77047V4.77047C178.325 2.81944 180.33 1.66161 182.281 2.18439C184.232 2.70717 185.39 4.71258 184.867 6.6636Z" fill="#FFBF31"/>
<path fill-rule="evenodd" clip-rule="evenodd" d="M208.113 5.78999V5.78999C208.152 5.93675 208.301 6.03093 208.448 5.99161L211.719 5.11516C212.319 4.95431 212.936 5.31056 213.097 5.91088L213.973 9.18182C214.013 9.32858 214.168 9.41004 214.315 9.37071V9.37071C216.266 8.84793 218.272 10.0058 218.794 11.9568C219.317 13.9078 218.159 15.9132 216.208 16.436V16.436C216.062 16.4753 215.967 16.6238 216.007 16.7705L216.883 20.0415C217.044 20.6418 216.688 21.2588 216.087 21.4197L212.28 22.4399C211.87 22.5498 211.468 22.2235 211.358 21.8131V21.8131C210.956 20.3124 209.413 19.4217 207.912 19.8239C206.412 20.226 205.521 21.7686 205.923 23.2694V23.2694C206.033 23.6798 205.849 24.1632 205.438 24.2731L201.957 25.206C201.357 25.3668 200.739 25.0106 200.579 24.4102L199.602 20.7658C199.492 20.3555 199.818 19.9539 200.229 19.8439V19.8439C201.73 19.4418 202.62 17.8992 202.218 16.3984C201.816 14.8976 200.273 14.007 198.773 14.4091V14.4091C198.362 14.519 197.879 14.3344 197.769 13.9241L196.792 10.2797C196.631 9.67934 196.988 9.06229 197.588 8.90144L200.859 8.02499C201.006 7.98567 201.087 7.82989 201.048 7.68313V7.68313C200.525 5.7321 201.683 3.72669 203.634 3.20391C205.585 2.68114 207.59 3.83896 208.113 5.78999Z" fill="#35E1D3"/>
<path fill-rule="evenodd" clip-rule="evenodd" d="M238.349 6.6636V6.6636C238.31 6.81037 238.391 6.96615 238.538 7.00547L241.809 7.88192C242.409 8.04277 242.766 8.65982 242.605 9.26014L241.728 12.5311C241.689 12.6778 241.783 12.8263 241.93 12.8656V12.8656C243.881 13.3884 245.039 15.3938 244.516 17.3448C243.993 19.2958 241.988 20.4537 240.037 19.9309V19.9309C239.89 19.8916 239.734 19.973 239.695 20.1198L238.818 23.3907C238.658 23.991 238.041 24.3473 237.44 24.1864L233.633 23.1662C233.222 23.0563 233.038 22.5729 233.148 22.1625V22.1625C233.55 20.6617 232.659 19.1191 231.158 18.717C229.658 18.3148 228.115 19.2055 227.713 20.7062V20.7062C227.603 21.1166 227.201 21.4429 226.791 21.333L223.31 20.4002C222.709 20.2393 222.353 19.6222 222.514 19.0219L223.49 15.3775C223.6 14.9672 224.084 14.7825 224.494 14.8925V14.8925C225.995 15.2946 227.538 14.404 227.94 12.9032C228.342 11.4024 227.451 9.8598 225.95 9.45766V9.45766C225.54 9.34771 225.214 8.94613 225.324 8.53577L226.3 4.89135C226.461 4.29104 227.078 3.93478 227.678 4.09564L230.949 4.97208C231.096 5.01141 231.245 4.91723 231.284 4.77047V4.77047C231.807 2.81944 233.812 1.66161 235.763 2.18439C237.714 2.70717 238.872 4.71258 238.349 6.6636Z" fill="#FF4F82"/>
<path d="M-1 13H127" stroke="white" stroke-opacity="0.2" stroke-linecap="round"/>
<path d="M262 13H390" stroke="white" stroke-opacity="0.2" stroke-linecap="round"/>
</svg>
