<svg width="140" height="140" viewBox="0 0 140 140" fill="none" xmlns="http://www.w3.org/2000/svg">
<path fill-rule="evenodd" clip-rule="evenodd" d="M105.593 139.567C110.664 139.567 114.775 135.456 114.775 130.385L114.775 106.056C114.775 105.52 115.232 105.1 115.767 105.119C116.048 105.13 116.329 105.135 116.612 105.135C129.29 105.135 139.567 94.8573 139.567 82.1796C139.567 69.5018 129.29 59.2245 116.612 59.2245C116.329 59.2245 116.048 59.2296 115.767 59.2397C115.232 59.2591 114.775 58.8388 114.775 58.3031L114.775 33.9738C114.775 28.9027 110.664 24.7918 105.593 24.7918L81.2641 24.7918C80.7284 24.7918 80.3081 24.3351 80.3275 23.7998C80.3376 23.5196 80.3427 23.2381 80.3427 22.9554C80.3427 10.2776 70.0653 0.000267629 57.3876 0.00026652C44.7098 0.000265412 34.4325 10.2776 34.4325 22.9554C34.4325 23.2381 34.4376 23.5196 34.4477 23.7998C34.4671 24.3351 34.0468 24.7918 33.5111 24.7918L9.18188 24.7918C4.11077 24.7918 -0.00016287 28.9027 -0.000163313 33.9738L-0.000207312 56.4698C-0.000208267 56.977 0.412554 57.3863 0.919328 57.4048C14.1853 57.8885 24.7913 68.7955 24.7913 82.1796C24.7913 95.5637 14.1853 106.471 0.919324 106.954C0.41255 106.973 -0.000212673 107.382 -0.000211807 107.889L-0.000171742 130.385C-0.000172185 135.456 4.11076 139.567 9.18187 139.567L105.593 139.567Z" fill="#7D7D7D"/>
<path d="M52.4449 94.2336C51.7364 94.2336 51.1329 93.9845 50.6344 93.4863C50.1362 92.9878 49.887 92.3843 49.887 91.6757V72.0669H48.3037V70.4836H54.637V69.2656H64.137V70.4836H70.4704V72.0669H68.887V91.6757C68.887 92.4046 68.6429 93.0131 68.1548 93.5013C67.6666 93.9895 67.058 94.2336 66.3292 94.2336H52.4449ZM67.3037 72.0669H51.4704V91.6757C51.4704 91.9599 51.5617 92.1935 51.7443 92.3764C51.9272 92.559 52.1607 92.6503 52.4449 92.6503H66.3292C66.573 92.6503 66.7964 92.5488 66.9993 92.3459C67.2022 92.1429 67.3037 91.9196 67.3037 91.6757V72.0669ZM55.916 89.4836H57.4993V75.2336H55.916V89.4836ZM61.2748 89.4836H62.8581V75.2336H61.2748V89.4836Z" fill="white"/>
</svg>
