<svg width="28" height="28" viewBox="0 0 28 28" fill="none" xmlns="http://www.w3.org/2000/svg">
<path d="M3.09955 27.6667C2.37069 27.6667 1.76216 27.4226 1.27396 26.9344C0.785769 26.4462 0.541672 25.8378 0.541672 25.1092V6.47454H2.12501V25.1092C2.12501 25.3528 2.22647 25.576 2.4294 25.7789C2.63233 25.9819 2.85571 26.0833 3.09955 26.0833H21.7338V27.6667H3.09955ZM7.84955 22.9167C7.12069 22.9167 6.51216 22.6726 6.02396 22.1844C5.53577 21.6962 5.29167 21.0877 5.29167 20.3588V3.30787C5.29167 2.57901 5.53577 1.97049 6.02396 1.48229C6.51216 0.994097 7.12069 0.75 7.84955 0.75H24.9005C25.6293 0.75 26.2379 0.994097 26.726 1.48229C27.2142 1.97049 27.4583 2.57901 27.4583 3.30787V20.3588C27.4583 21.0877 27.2142 21.6962 26.726 22.1844C26.2379 22.6726 25.6293 22.9167 24.9005 22.9167H7.84955ZM16.375 12.0162L19.5417 10.1281L22.7083 12.0162V2.33333H16.375V12.0162Z" fill="#E2E2E2"/>
</svg>
