<svg width="28" height="28" viewBox="0 0 28 28" fill="none" xmlns="http://www.w3.org/2000/svg">
<path d="M14.0049 27.5C12.1381 27.5 10.383 27.1458 8.7395 26.4373C7.09625 25.7288 5.66675 24.7673 4.451 23.5527C3.23525 22.3383 2.27287 20.91 1.56387 19.268C0.854625 17.6263 0.5 15.8719 0.5 14.0049C0.5 12.1381 0.85425 10.383 1.56275 8.7395C2.27125 7.09625 3.23275 5.66675 4.44725 4.451C5.66175 3.23525 7.09 2.27287 8.732 1.56387C10.3737 0.854625 12.1281 0.5 13.9951 0.5C15.8619 0.5 17.617 0.854251 19.2605 1.56275C20.9038 2.27125 22.3333 3.23275 23.549 4.44725C24.7648 5.66175 25.7271 7.09 26.4361 8.732C27.1454 10.3738 27.5 12.1281 27.5 13.9951C27.5 15.8619 27.1458 17.617 26.4373 19.2605C25.7288 20.9038 24.7673 22.3333 23.5527 23.549C22.3383 24.7648 20.91 25.7271 19.268 26.4361C17.6262 27.1454 15.8719 27.5 14.0049 27.5ZM12.5 25.925V23C11.675 23 10.9688 22.7063 10.3813 22.1188C9.79375 21.5312 9.5 20.825 9.5 20V18.5L2.3 11.3C2.225 11.75 2.15625 12.2 2.09375 12.65C2.03125 13.1 2 13.55 2 14C2 17.025 2.99375 19.675 4.98125 21.95C6.96875 24.225 9.475 25.55 12.5 25.925ZM22.85 22.1C23.35 21.55 23.8 20.9563 24.2 20.3188C24.6 19.6813 24.9313 19.0188 25.1938 18.3313C25.4563 17.6438 25.6563 16.9375 25.7938 16.2125C25.9313 15.4875 26 14.75 26 14C26 11.5355 25.3235 9.28475 23.9705 7.24775C22.6178 5.21075 20.7943 3.74225 18.5 2.84225V3.5C18.5 4.325 18.2063 5.03125 17.6188 5.61875C17.0312 6.20625 16.325 6.5 15.5 6.5H12.5V9.5C12.5 9.925 12.3563 10.2812 12.0688 10.5688C11.7812 10.8563 11.425 11 11 11H8V14H17C17.425 14 17.7812 14.1438 18.0688 14.4313C18.3563 14.7188 18.5 15.075 18.5 15.5V20H20C20.65 20 21.2375 20.1938 21.7625 20.5813C22.2875 20.9688 22.65 21.475 22.85 22.1Z" fill="#E2E2E2"/>
</svg>
