<svg width="140" height="140" viewBox="0 0 140 140" fill="none" xmlns="http://www.w3.org/2000/svg">
<path fill-rule="evenodd" clip-rule="evenodd" d="M114.775 130.385C114.775 135.456 110.664 139.567 105.593 139.567L9.18183 139.567C4.11072 139.567 -0.000217485 135.456 -0.000217041 130.385L-0.000208613 33.9738C-0.00020817 28.9027 4.11073 24.7918 9.18184 24.7918L33.5111 24.7918C34.0467 24.7918 34.467 24.3351 34.4477 23.7998C34.4375 23.5196 34.4324 23.2381 34.4324 22.9554C34.4324 10.2776 44.7098 0.000265412 57.3876 0.00026652C70.0653 0.000267629 80.3427 10.2776 80.3427 22.9554C80.3427 23.2381 80.3376 23.5196 80.3274 23.7998C80.3081 24.3351 80.7284 24.7918 81.264 24.7918L105.593 24.7918C110.664 24.7918 114.775 28.9027 114.775 33.9738L114.775 58.3031C114.775 58.8388 115.232 59.2591 115.767 59.2397C116.048 59.2296 116.329 59.2245 116.612 59.2245C129.29 59.2245 139.567 69.5018 139.567 82.1796C139.567 94.8573 129.29 105.135 116.612 105.135C116.329 105.135 116.048 105.13 115.767 105.119C115.232 105.1 114.775 105.52 114.775 106.056L114.775 130.385Z" fill="#7D7D7D"/>
<path d="M51.0582 94.2336C50.3497 94.2336 49.7461 93.9845 49.2477 93.4863C48.7494 92.9878 48.5003 92.3843 48.5003 91.6757V72.0669H46.917V70.4836H53.2503V69.2656H62.7503V70.4836H69.0837V72.0669H67.5003V91.6757C67.5003 92.4046 67.2562 93.0131 66.768 93.5013C66.2798 93.9895 65.6713 94.2336 64.9425 94.2336H51.0582ZM65.917 72.0669H50.0837V91.6757C50.0837 91.9599 50.175 92.1935 50.3576 92.3764C50.5405 92.559 50.774 92.6503 51.0582 92.6503H64.9425C65.1863 92.6503 65.4097 92.5488 65.6126 92.3459C65.8155 92.1429 65.917 91.9196 65.917 91.6757V72.0669ZM54.5293 89.4836H56.1126V75.2336H54.5293V89.4836ZM59.8881 89.4836H61.4714V75.2336H59.8881V89.4836Z" fill="white"/>
</svg>
