<svg width="140" height="140" viewBox="0 0 140 140" fill="none" xmlns="http://www.w3.org/2000/svg">
<path fill-rule="evenodd" clip-rule="evenodd" d="M57.3876 114.776C44.0035 114.776 33.0965 125.382 32.6128 138.648C32.5943 139.155 32.185 139.567 31.6778 139.567L9.18187 139.567C4.11076 139.567 -0.000172185 135.456 -0.000171742 130.385L-0.000211807 107.889C-0.000212673 107.382 0.41255 106.973 0.919324 106.954C14.1853 106.471 24.7913 95.5637 24.7913 82.1796C24.7913 68.7955 14.1853 57.8885 0.919328 57.4048C0.412554 57.3863 -0.000208267 56.977 -0.000207312 56.4698L-0.000163313 33.9738C-0.00016287 28.9027 4.11077 24.7918 9.18188 24.7918L33.5111 24.7918C34.0468 24.7918 34.4671 24.3351 34.4477 23.7998C34.4376 23.5195 34.4325 23.2381 34.4325 22.9554C34.4325 10.2776 44.7098 0.000265412 57.3876 0.00026652C70.0653 0.000267629 80.3427 10.2776 80.3427 22.9554C80.3427 23.2381 80.3376 23.5196 80.3275 23.7998C80.3081 24.3351 80.7284 24.7918 81.2641 24.7918L105.593 24.7918C110.664 24.7918 114.775 28.9027 114.775 33.9738L114.775 58.3031C114.775 58.8388 115.232 59.2591 115.767 59.2397C116.048 59.2296 116.329 59.2245 116.612 59.2245C129.29 59.2245 139.567 69.5018 139.567 82.1796C139.567 94.8573 129.29 105.135 116.612 105.135C116.329 105.135 116.048 105.13 115.767 105.119C115.232 105.1 114.775 105.52 114.775 106.056L114.775 130.385C114.775 135.456 110.664 139.567 105.593 139.567L83.0973 139.567C82.5902 139.567 82.1808 139.155 82.1624 138.648C81.6787 125.382 70.7717 114.776 57.3876 114.776Z" fill="#7D7D7D"/>
<path d="M52.4449 88.8459C51.7364 88.8459 51.1329 88.5968 50.6344 88.0986C50.1362 87.6001 49.887 86.9966 49.887 86.288V66.6792H48.3037V65.0959H54.637V63.8779H64.137V65.0959H70.4704V66.6792H68.887V86.288C68.887 87.0169 68.6429 87.6254 68.1548 88.1136C67.6666 88.6018 67.058 88.8459 66.3292 88.8459H52.4449ZM67.3037 66.6792H51.4704V86.288C51.4704 86.5722 51.5617 86.8058 51.7443 86.9887C51.9272 87.1713 52.1607 87.2626 52.4449 87.2626H66.3292C66.573 87.2626 66.7964 87.1611 66.9993 86.9582C67.2022 86.7552 67.3037 86.5319 67.3037 86.288V66.6792ZM55.916 84.0959H57.4993V69.8459H55.916V84.0959ZM61.2748 84.0959H62.8581V69.8459H61.2748V84.0959Z" fill="white"/>
</svg>
