<svg width="115" height="140" viewBox="0 0 115 140" fill="none" xmlns="http://www.w3.org/2000/svg">
<path fill-rule="evenodd" clip-rule="evenodd" d="M114.775 130.385C114.775 135.456 110.664 139.567 105.593 139.567L9.18187 139.567C4.11076 139.567 -0.000177262 135.456 -0.000176819 130.385L-0.000216885 107.889C-0.000217751 107.382 0.412545 106.973 0.919319 106.954C14.1853 106.471 24.7913 95.5637 24.7913 82.1796C24.7913 68.7955 14.1853 57.8885 0.919323 57.4048C0.412549 57.3863 -0.000213344 56.977 -0.000212389 56.4699L-0.000168391 33.9738C-0.000167947 28.9027 4.11077 24.7918 9.18188 24.7918L33.5111 24.7918C34.0468 24.7918 34.4671 24.3351 34.4477 23.7998C34.4376 23.5196 34.4325 23.2381 34.4325 22.9554C34.4325 10.2776 44.7098 0.000267579 57.3876 0.000268688C70.0653 0.000269796 80.3427 10.2776 80.3427 22.9554C80.3427 23.2381 80.3376 23.5196 80.3274 23.7998C80.3081 24.3351 80.7284 24.7918 81.2641 24.7918L105.593 24.7918C110.664 24.7918 114.775 28.9027 114.775 33.9738L114.775 130.385Z" fill="#7D7D7D"/>
<path d="M51.8331 94.2336C51.1246 94.2336 50.521 93.9845 50.0226 93.4863C49.5243 92.9878 49.2752 92.3843 49.2752 91.6757V72.0669H47.6919V70.4836H54.0252V69.2656H63.5252V70.4836H69.8586V72.0669H68.2752V91.6757C68.2752 92.4046 68.0311 93.0131 67.5429 93.5013C67.0547 93.9895 66.4462 94.2336 65.7174 94.2336H51.8331ZM66.6919 72.0669H50.8586V91.6757C50.8586 91.9599 50.9499 92.1935 51.1325 92.3764C51.3154 92.559 51.5489 92.6503 51.8331 92.6503H65.7174C65.9612 92.6503 66.1846 92.5488 66.3875 92.3459C66.5904 92.1429 66.6919 91.9196 66.6919 91.6757V72.0669ZM55.3042 89.4836H56.8875V75.2336H55.3042V89.4836ZM60.663 89.4836H62.2463V75.2336H60.663V89.4836Z" fill="white"/>
</svg>
