<svg width="140" height="140" viewBox="0 0 140 140" fill="none" xmlns="http://www.w3.org/2000/svg">
<path fill-rule="evenodd" clip-rule="evenodd" d="M57.3876 114.776C44.0034 114.776 33.0965 125.382 32.6128 138.648C32.5943 139.155 32.1849 139.567 31.6778 139.567L9.18183 139.567C4.11072 139.567 -0.000217485 135.456 -0.000217041 130.385L-0.000208613 33.9738C-0.00020817 28.9027 4.11073 24.7918 9.18184 24.7918L33.5111 24.7918C34.0467 24.7918 34.467 24.3351 34.4477 23.7998C34.4375 23.5195 34.4324 23.2381 34.4324 22.9554C34.4324 10.2776 44.7098 0.000265412 57.3876 0.00026652C70.0653 0.000267629 80.3427 10.2776 80.3427 22.9554C80.3427 23.2381 80.3376 23.5196 80.3274 23.7998C80.3081 24.3351 80.7284 24.7918 81.264 24.7918L105.593 24.7918C110.664 24.7918 114.775 28.9027 114.775 33.9738L114.775 58.3031C114.775 58.8388 115.232 59.2591 115.767 59.2397C116.048 59.2296 116.329 59.2245 116.612 59.2245C129.29 59.2245 139.567 69.5018 139.567 82.1796C139.567 94.8573 129.29 105.135 116.612 105.135C116.329 105.135 116.048 105.13 115.767 105.119C115.232 105.1 114.775 105.52 114.775 106.056L114.775 130.385C114.775 135.456 110.664 139.567 105.593 139.567L83.0973 139.567C82.5902 139.567 82.1808 139.155 82.1624 138.648C81.6786 125.382 70.7717 114.776 57.3876 114.776Z" fill="#7D7D7D"/>
<path d="M51.0582 88.8459C50.3497 88.8459 49.7461 88.5968 49.2477 88.0986C48.7494 87.6001 48.5003 86.9966 48.5003 86.288V66.6792H46.917V65.0959H53.2503V63.8779H62.7503V65.0959H69.0837V66.6792H67.5003V86.288C67.5003 87.0169 67.2562 87.6254 66.768 88.1136C66.2798 88.6018 65.6713 88.8459 64.9425 88.8459H51.0582ZM65.917 66.6792H50.0837V86.288C50.0837 86.5722 50.175 86.8058 50.3576 86.9887C50.5405 87.1713 50.774 87.2626 51.0582 87.2626H64.9425C65.1863 87.2626 65.4097 87.1611 65.6126 86.9582C65.8155 86.7552 65.917 86.5319 65.917 86.288V66.6792ZM54.5293 84.0959H56.1126V69.8459H54.5293V84.0959ZM59.8881 84.0959H61.4714V69.8459H59.8881V84.0959Z" fill="white"/>
</svg>
